<?xml version="1.0" standalone="no"?>
<!DOCTYPE svg PUBLIC "-//W3C//DTD SVG 20010904//EN"
 "http://www.w3.org/TR/2001/REC-SVG-20010904/DTD/svg10.dtd">
<svg version="1.0" xmlns="http://www.w3.org/2000/svg"
 width="512.000000pt" height="512.000000pt" viewBox="0 0 512.000000 512.000000"
 preserveAspectRatio="xMidYMid meet">
<metadata>
Created by potrace 1.15, written by Peter Selinger 2001-2017
</metadata>
<g transform="translate(0.000000,512.000000) scale(0.100000,-0.100000)"
fill="#000000" stroke="none">
<path d="M664 3734 c-10 -14 -13 -28 -8 -33 5 -4 187 -106 404 -226 217 -120
396 -219 397 -220 2 -1 -15 -35 -35 -77 -69 -136 -104 -274 -123 -478 -46
-504 130 -889 450 -984 79 -23 232 -21 313 4 264 81 468 424 495 828 3 50 7
92 8 92 1 0 43 -23 92 -50 l91 -50 6 -88 c22 -281 105 -487 251 -620 103 -95
204 -132 356 -132 166 0 287 54 400 178 31 34 59 62 62 62 4 0 188 -101 411
-225 223 -124 407 -225 410 -225 3 0 12 13 20 29 l15 29 -409 227 c-226 125
-410 229 -410 231 0 3 15 35 34 72 38 76 78 194 101 297 26 112 32 448 11 574
-52 307 -194 509 -413 587 -97 34 -249 34 -345 0 -197 -69 -360 -272 -439
-546 -23 -78 -49 -228 -50 -290 -1 -85 -3 -85 -106 -28 l-93 52 0 71 c0 280
-132 571 -309 685 -90 57 -172 80 -291 80 -169 0 -271 -46 -400 -180 l-65 -67
-400 223 c-220 123 -403 223 -407 224 -4 0 -15 -11 -24 -26z m1342 -268 c101
-47 178 -141 242 -298 33 -79 86 -279 80 -302 -2 -8 -137 61 -374 193 l-372
207 45 67 c46 70 85 105 150 138 56 28 163 26 229 -5z m1460 0 c136 -63 239
-229 299 -478 39 -164 49 -268 50 -493 0 -210 -14 -324 -48 -407 l-12 -28
-392 217 -391 218 -8 105 c-4 58 -4 170 -1 250 8 226 43 359 124 483 46 69 84
104 150 138 56 28 163 26 229 -5z m-1115 -777 c25 -291 -9 -566 -87 -710 -38
-69 -110 -146 -168 -179 -42 -25 -62 -30 -116 -30 -240 0 -423 300 -471 775
-21 209 -1 520 41 630 9 23 18 19 402 -194 l393 -219 6 -73z m1011 -490 c200
-111 365 -203 367 -205 8 -7 -71 -113 -110 -148 -127 -116 -290 -100 -417 39
-63 68 -140 220 -175 345 -27 93 -42 170 -33 170 3 0 168 -91 368 -201z"/>
</g>
</svg>
